<?xml version="1.0" encoding="UTF-8"?>
<svg xmlns="http://www.w3.org/2000/svg" xmlns:xlink="http://www.w3.org/1999/xlink" version="1.1" viewBox="0 0 800 400">
<!--Generator: Adobe Illustrator 29.6.1, SVG Export Plug-In . SVG Version: 2.1.1 Build 9)-->
  <defs>
    <style>
      .st0 {
        fill: none;
      }

      .st1 {
        fill: url(#radial-gradient1);
      }

      .st1, .st2 {
        mix-blend-mode: soft-light;
      }

      .st3 {
        fill: url(#radial-gradient20);
      }

      .st4 {
        fill: url(#radial-gradient21);
      }

      .st5 {
        fill: url(#radial-gradient16);
      }

      .st6 {
        fill: url(#radial-gradient17);
      }

      .st7 {
        fill: url(#radial-gradient12);
      }

      .st8 {
        fill: url(#radial-gradient15);
      }

      .st9 {
        fill: url(#radial-gradient18);
      }

      .st10 {
        fill: url(#radial-gradient10);
      }

      .st11 {
        fill: url(#radial-gradient19);
      }

      .st12 {
        fill: url(#radial-gradient13);
      }

      .st13 {
        fill: url(#radial-gradient11);
      }

      .st14 {
        fill: url(#radial-gradient14);
      }

      .st15 {
        fill: url(#radial-gradient);
      }

      .st16 {
        fill: #17ffad;
      }

      .st17 {
        opacity: .6;
      }

      .st17, .st2 {
        fill: #fff;
      }

      .st18, .st19 {
        fill: #0c0c32;
      }

      .st20 {
        isolation: isolate;
      }

      .st21 {
        mix-blend-mode: multiply;
      }

      .st22 {
        fill: #c5c5c5;
      }

      .st19 {
        filter: url(#drop-shadow-1);
      }

      .st23 {
        opacity: .7;
      }

      .st24 {
        fill: url(#radial-gradient6);
      }

      .st25 {
        fill: url(#radial-gradient9);
      }

      .st26 {
        fill: url(#radial-gradient8);
      }

      .st27 {
        fill: url(#radial-gradient2);
      }

      .st28 {
        fill: url(#radial-gradient7);
      }

      .st29 {
        fill: #272d8f;
      }

      .st2 {
        opacity: .5;
      }

      .st30 {
        fill: url(#radial-gradient4);
      }

      .st30, .st31, .st32 {
        opacity: .8;
      }

      .st31 {
        fill: url(#radial-gradient5);
      }

      .st32 {
        fill: url(#radial-gradient3);
      }

      .st33 {
        fill: #dcdcdc;
      }

      .st34 {
        clip-path: url(#clippath);
      }

      .st35 {
        fill: #898989;
      }
    </style>
    <filter id="drop-shadow-1" x="55.6" y="28.6" width="309" height="347" filterUnits="userSpaceOnUse">
      <feOffset dx="0" dy="4.7"/>
      <feGaussianBlur result="blur" stdDeviation="3.1"/>
      <feFlood flood-color="#000" flood-opacity=".4"/>
      <feComposite in2="blur" operator="in"/>
      <feComposite in="SourceGraphic"/>
    </filter>
    <clipPath id="clippath">
      <path class="st0" d="M66,125.8v143.6c0,7,3.8,13.5,9.8,17l124.4,71.8c6.1,3.5,13.6,3.5,19.7,0l124.4-71.8c6.1-3.5,9.8-10,9.8-17V125.8c0-7-3.8-13.5-9.8-17l-124.4-71.8c-6.1-3.5-13.6-3.5-19.7,0l-124.4,71.8c-6.1,3.5-9.8,10-9.8,17Z"/>
    </clipPath>
    <radialGradient id="radial-gradient" cx="274.2" cy="302.4" fx="274.2" fy="302.4" r="235.1" gradientTransform="translate(-.1)" gradientUnits="userSpaceOnUse">
      <stop offset="0" stop-color="#abdfbb"/>
      <stop offset="1" stop-color="#1a6060"/>
    </radialGradient>
    <radialGradient id="radial-gradient1" cx="211" cy="198.4" fx="200.6" fy="234.2" r="112.1" gradientTransform="translate(-.1)" gradientUnits="userSpaceOnUse">
      <stop offset="1" stop-color="#fff" stop-opacity="0"/>
      <stop offset="1" stop-color="#fff"/>
    </radialGradient>
    <radialGradient id="radial-gradient2" cx="269.9" cy="201.9" fx="269.9" fy="201.9" r="193.7" gradientTransform="translate(529.5 107.6) rotate(147.8) scale(1 .3)" gradientUnits="userSpaceOnUse">
      <stop offset="0" stop-color="#ebebff"/>
      <stop offset="1" stop-color="#ebeb04"/>
    </radialGradient>
    <radialGradient id="radial-gradient3" cx="147.9" cy="191.8" fx="147.9" fy="191.8" r="32.1" xlink:href="#radial-gradient"/>
    <radialGradient id="radial-gradient4" cx="159.3" cy="235.7" fx="159.3" fy="235.7" r="32.1" xlink:href="#radial-gradient"/>
    <radialGradient id="radial-gradient5" cx="211.1" cy="143.6" fx="211.1" fy="143.6" r="32.1" xlink:href="#radial-gradient"/>
    <radialGradient id="radial-gradient6" cx="53" cy="2113.1" fx="53" fy="2113.1" r="204.1" gradientTransform="translate(186.9 -2050.3) skewX(0)" gradientUnits="userSpaceOnUse">
      <stop offset="0" stop-color="#b6f3ff"/>
      <stop offset="1" stop-color="#5c2aff"/>
    </radialGradient>
    <radialGradient id="radial-gradient7" cx="53" cy="2113.1" fx="53" fy="2113.1" r="204.1" gradientTransform="translate(173.5 -2053.9) skewX(0)" xlink:href="#radial-gradient6"/>
    <radialGradient id="radial-gradient8" cx="53" cy="2113.1" fx="53" fy="2113.1" r="204.1" gradientTransform="translate(1282.5 -1746.3) rotate(30.1) skewX(0)" xlink:href="#radial-gradient6"/>
    <radialGradient id="radial-gradient9" cx="53" cy="2113.1" fx="53" fy="2113.1" r="204.1" gradientTransform="translate(169.8 -2040.5) skewX(0)" xlink:href="#radial-gradient6"/>
    <radialGradient id="radial-gradient10" cx="53" cy="2113.1" fx="53" fy="2113.1" r="204.1" gradientTransform="translate(179.7 -2023.4) skewX(0)" xlink:href="#radial-gradient6"/>
    <radialGradient id="radial-gradient11" cx="53" cy="2113.1" fx="53" fy="2113.1" r="204.1" gradientTransform="translate(166.2 -2027.1) skewX(0)" xlink:href="#radial-gradient6"/>
    <radialGradient id="radial-gradient12" cx="53" cy="2113.1" fx="53" fy="2113.1" r="204.1" gradientTransform="translate(558.7 2483.9) rotate(-180) skewX(0)" xlink:href="#radial-gradient6"/>
    <radialGradient id="radial-gradient13" cx="53" cy="2113.1" fx="53" fy="2113.1" r="204.1" gradientTransform="translate(572.1 2434) rotate(-180) skewX(0)" xlink:href="#radial-gradient6"/>
    <radialGradient id="radial-gradient14" cx="53" cy="2113.1" fx="53" fy="2113.1" r="204.1" gradientTransform="translate(508.8 2470.4) rotate(-180) skewX(0)" xlink:href="#radial-gradient6"/>
    <radialGradient id="radial-gradient15" cx="53" fx="53" r="204.1" gradientTransform="translate(522.2 2420.6) rotate(-180) skewX(0)" xlink:href="#radial-gradient6"/>
    <radialGradient id="radial-gradient16" cx="53" cy="2113.1" fx="53" fy="2113.1" r="204.1" gradientTransform="translate(458.9 2457) rotate(-180) skewX(0)" xlink:href="#radial-gradient6"/>
    <radialGradient id="radial-gradient17" cx="53" cy="2113.1" fx="53" fy="2113.1" r="204.1" gradientTransform="translate(472.4 2407.1) rotate(-180) skewX(0)" xlink:href="#radial-gradient6"/>
    <radialGradient id="radial-gradient18" cx="8920" cy="3407.5" fx="8920" fy="3407.5" r="31.2" gradientTransform="translate(9201.5 3547.4) rotate(180) skewX(0)" gradientUnits="userSpaceOnUse">
      <stop offset="0" stop-color="#323232"/>
      <stop offset="1" stop-color="#c8c8c8"/>
    </radialGradient>
    <radialGradient id="radial-gradient19" cx="288.3" cy="175.1" fx="288.3" fy="175.1" r="33.9" gradientTransform="translate(482 404.7) rotate(-158.8)" gradientUnits="userSpaceOnUse">
      <stop offset="0" stop-color="#323232"/>
      <stop offset=".4" stop-color="#c8c8c8"/>
    </radialGradient>
    <radialGradient id="radial-gradient20" cx="288.3" cy="175.1" fx="288.3" fy="175.1" r="33.9" gradientTransform="translate(-.1)" xlink:href="#radial-gradient19"/>
    <radialGradient id="radial-gradient21" cx="8919.8" cy="3371.4" fx="8919.8" fy="3371.4" r="22.7" gradientTransform="translate(9823.7 91.8) rotate(158.8) skewX(0)" xlink:href="#radial-gradient18"/>
  </defs>
  <g class="st20">
    <g id="Layer_1">
      <g>
        <rect class="st17" width="800" height="400" rx="21.1" ry="21.1"/>
        <path class="st19" d="M66,125.8v143.6c0,7,3.8,13.5,9.8,17l124.4,71.8c6.1,3.5,13.6,3.5,19.7,0l124.4-71.8c6.1-3.5,9.8-10,9.8-17V125.8c0-7-3.8-13.5-9.8-17l-124.4-71.8c-6.1-3.5-13.6-3.5-19.7,0l-124.4,71.8c-6.1,3.5-9.8,10-9.8,17Z"/>
        <g>
          <path class="st18" d="M66,125.8v143.6c0,7,3.8,13.5,9.8,17l124.4,71.8c6.1,3.5,13.6,3.5,19.7,0l124.4-71.8c6.1-3.5,9.8-10,9.8-17V125.8c0-7-3.8-13.5-9.8-17l-124.4-71.8c-6.1-3.5-13.6-3.5-19.7,0l-124.4,71.8c-6.1,3.5-9.8,10-9.8,17Z"/>
          <g>
            <path class="st29" d="M87.7,117l1.3,4.7c.5,1.7,1.8,3.1,3.6,3.6l4.7,1.3-4.7,1.3c-1.7.5-3.1,1.8-3.6,3.6l-1.3,4.7-1.3-4.7c-.5-1.7-1.8-3.1-3.6-3.6l-4.7-1.3,4.7-1.3c1.7-.5,3.1-1.8,3.6-3.6l1.3-4.7Z"/>
            <path class="st29" d="M182.1,316.3l1.3,4.7c.5,1.7,1.8,3.1,3.6,3.6l4.7,1.3-4.7,1.3c-1.7.5-3.1,1.8-3.6,3.6l-1.3,4.7-1.3-4.7c-.5-1.7-1.8-3.1-3.6-3.6l-4.7-1.3,4.7-1.3c1.7-.5,3.1-1.8,3.6-3.6l1.3-4.7Z"/>
            <path class="st29" d="M312.3,275.1l1.3,4.7c.5,1.7,1.8,3.1,3.6,3.6l4.7,1.3-4.7,1.3c-1.7.5-3.1,1.8-3.6,3.6l-1.3,4.7-1.3-4.7c-.5-1.7-1.8-3.1-3.6-3.6l-4.7-1.3,4.7-1.3c1.7-.5,3.1-1.8,3.6-3.6l1.3-4.7Z"/>
            <path class="st29" d="M260.7,67.5l1.3,4.7c.5,1.7,1.8,3.1,3.6,3.6l4.7,1.3-4.7,1.3c-1.7.5-3.1,1.8-3.6,3.6l-1.3,4.7-1.3-4.7c-.5-1.7-1.8-3.1-3.6-3.6l-4.7-1.3,4.7-1.3c1.7-.5,3.1-1.8,3.6-3.6l1.3-4.7Z"/>
            <circle class="st29" cx="150.6" cy="85.8" r="1.6"/>
            <circle class="st29" cx="197" cy="46.2" r="1.6"/>
            <circle class="st29" cx="180.9" cy="70.7" r="1.6"/>
            <circle class="st29" cx="208" cy="74" r="1.6"/>
            <circle class="st29" cx="211.4" cy="60.8" r="1.6"/>
            <circle class="st29" cx="87.7" cy="188.5" r="1.6"/>
            <circle class="st29" cx="105.8" cy="276.8" r="1.6"/>
            <circle class="st29" cx="104.2" cy="291.3" r="1.6"/>
            <circle class="st29" cx="114.5" cy="286.3" r="1.6"/>
            <circle class="st29" cx="260.5" cy="324.5" r="1.6"/>
            <circle class="st29" cx="249.1" cy="318.9" r="1.6"/>
            <circle class="st29" cx="274.8" cy="314.6" r="1.6"/>
            <circle class="st29" cx="266.3" cy="308.5" r="1.6"/>
            <circle class="st29" cx="341.2" cy="186.9" r="1.6"/>
            <circle class="st29" cx="346.3" cy="175.5" r="1.6"/>
            <circle class="st29" cx="319.1" cy="141.1" r="1.6"/>
            <circle class="st29" cx="289.2" cy="93.9" r="1.6"/>
            <circle class="st29" cx="226.6" cy="316.2" r="1.6"/>
            <circle class="st29" cx="212.3" cy="330.7" r="1.6"/>
          </g>
          <g class="st34">
            <g>
              <path class="st2" d="M-70.1,231c120.5-61.5,114.1-23,166.3-3.9,52.1,19.1,111.3-38.7,134.8,17.8,23.5,56.5-18.1,114.1,47.8,117.2,65.9,3-47.8,62.3-47.8,62.3l-132.5-7.5-141.6-66.2-26.9-119.7Z"/>
              <path class="st2" d="M-41.6,186.9c120.5-61.5,114.1-23,166.3-3.9,52.1,19.1,111.3-38.7,134.8,17.8,23.5,56.5-18.1,114.1,47.8,117.2s-47.8,62.3-47.8,62.3l-132.5-7.5L-14.7,306.6l-26.9-119.7Z"/>
              <path class="st2" d="M416.6,115.9c-120.5,61.5-114.1,23-166.3,3.9-52.1-19.1-111.3,38.7-134.8-17.8-23.5-56.5,18.1-114.1-47.8-117.2s47.8-62.3,47.8-62.3l132.5,7.5L389.7-3.8l26.9,119.7Z"/>
              <path class="st2" d="M376.3,60.4c-120.5,61.5-114.1,23-166.3,3.9-52.1-19.1-111.3,38.7-134.8-17.8-23.5-56.5,18.1-114.1-47.8-117.2s47.8-62.3,47.8-62.3l132.5,7.5,141.6,66.2,26.9,119.7Z"/>
            </g>
          </g>
          <g>
            <ellipse class="st15" cx="211.4" cy="197.6" rx="110.9" ry="110.9"/>
            <ellipse class="st1" cx="211.4" cy="197.6" rx="110.9" ry="110.9"/>
          </g>
          <path class="st27" d="M101.5,213.3c-2,1.8-4,3.7-6,5.7-6,6-19.5,20.8-15.4,29.5,1.8,3.3,5.8,4.6,9.4,5.4,4.4.9,8.9,1,13.4.8,15.6-.7,31-4.5,46.1-8.7,36.5-10.6,71.9-25.6,105.7-43,22.3-11.8,44.4-24.5,63.6-40.9,4.6-4.1,9-8.3,12.7-13.2,2.8-3.9,6.3-9.5,4.6-14.3-3.7-8.9-24-8.7-32.3-8.2-2.1.1-4.3.3-6.4.5l-2.9-3.3c15.6-2.7,29.4-3.1,38.9.5,6.3,2.5,10.5,7.6,10.2,14.7-.7,15.6-21.5,34.1-33.1,43.6-48.1,38.5-125.8,73-187.1,80.5-12.9,1.4-34.4,2.7-44.8-5.8-7.3-6.1-6.2-14.8-1.8-22.3,5-8.4,13.9-17.1,24.7-25.5l.6,4.1Z"/>
          <ellipse class="st32" cx="139.3" cy="177.5" rx="15.1" ry="15.1"/>
          <ellipse class="st30" cx="150.6" cy="221.4" rx="15.1" ry="15.1"/>
          <ellipse class="st31" cx="202.5" cy="129.3" rx="15.1" ry="15.1"/>
          <g id="Satellite">
            <g>
              <path class="st18" d="M378.5,239.3l-64-37.2-18.8-32.7c3.4-5.7,3.9-13,1.3-19.7-1.1-2.8-4.2-3.3-6.7-3.3s-6.1.6-9.9,1.7c-1-1-2.3-1.6-3.7-1.6s-1.3.1-1.9.4c-2,.8-3.3,2.7-3.4,4.7-2.9,1.4-5.5,2.9-7.4,4.4h-28.9s-64.3-37.3-64.3-37.3c-1.1-.6-2.3-1-3.6-1-2.5,0-4.9,1.4-6.1,3.5l-21.3,36.7c-1,1.6-1.2,3.5-.7,5.4.5,1.8,1.7,3.4,3.3,4.3l64.2,37.3,24.3,42.4c1.3,2.2,3.7,3.6,6.2,3.6h48.7s64.2,37.3,64.2,37.3c1.1.6,2.3,1,3.6,1h0c2.5,0,4.9-1.4,6.1-3.5l21.3-36.7c2-3.4.8-7.7-2.6-9.7Z"/>
              <g>
                <path class="st24" d="M163.2,123.7h16.9c1.1,0,2,.9,2,2v19.7c0,1.1-.9,2-2,2h-19.7c-1.1,0-2-.9-2-2v-16.9c0-2.6,2.1-4.7,4.7-4.7Z" transform="translate(91.1 -67.2) rotate(30.1)"/>
                <path class="st28" d="M147,146.8h19.7c1.1,0,2,.9,2,2v19.7c0,1.1-.9,2-2,2h-16.9c-2.6,0-4.7-2.1-4.7-4.7v-16.9c0-1.1.9-2,2-2Z" transform="translate(100.9 -57.3) rotate(30.1)"/>
                <path class="st26" d="M207.8,143.7c.9.5,1.3,1.7.7,2.7l-9.9,17c-.5.9-1.7,1.3-2.7.7l-17-9.9c-.9-.5-1.3-1.7-.7-2.7l9.9-17c.5-.9,1.7-1.3,2.7-.7"/>
                <rect class="st25" x="168.2" y="160.2" width="23.6" height="23.6" rx="2" ry="2" transform="translate(110.8 -67.1) rotate(30.1)"/>
                <rect class="st10" x="204.7" y="150.6" width="23.6" height="23.6" rx="2" ry="2" transform="translate(110.8 -86.8) rotate(30.1)"/>
                <rect class="st13" x="191.3" y="173.7" width="23.6" height="23.6" rx="2" ry="2" transform="translate(120.6 -76.9) rotate(30.1)"/>
              </g>
              <g>
                <path class="st7" d="M343.7,259.5h17.1c1.1,0,2,.9,2,2v19.7c0,1.1-.9,2-2,2h-19.7c-1.1,0-2-.9-2-2v-17.1c0-2.5,2.1-4.6,4.6-4.6Z" transform="translate(518 682.2) rotate(-149.9)"/>
                <path class="st12" d="M354.5,236.4h19.7c1.1,0,2,.9,2,2v19.7c0,1.1-.9,2-2,2h-16.9c-2.6,0-4.7-2.1-4.7-4.7v-16.9c0-1.1.9-2,2-2Z" transform="translate(554.7 645.8) rotate(-149.9)"/>
                <rect class="st14" x="316" y="246.1" width="23.6" height="23.6" rx="2" ry="2" transform="translate(481.6 645.5) rotate(-149.9)"/>
                <rect class="st8" x="329.4" y="223" width="23.6" height="23.6" rx="2" ry="2" transform="translate(518.3 609.1) rotate(-149.9)"/>
                <rect class="st5" x="292.8" y="232.7" width="23.6" height="23.6" rx="2" ry="2" transform="translate(445.3 608.8) rotate(-149.9)"/>
                <rect class="st6" x="306.3" y="209.5" width="23.6" height="23.6" rx="2" ry="2" transform="translate(481.9 572.5) rotate(-149.9)"/>
              </g>
              <g>
                <polygon class="st16" points="260.7 203.6 235.3 247.1 210.1 203.2 235.5 159.7 260.7 203.6"/>
                <polygon class="st16" points="260.7 203.6 311.1 203.6 285.6 247.1 235.3 247.1 260.7 203.6"/>
                <polygon class="st16" points="235.5 159.7 285.9 159.7 311.1 203.6 260.7 203.6 235.5 159.7"/>
              </g>
              <g class="st21">
                <polygon class="st35" points="260.7 203.6 235.3 247.1 210.1 203.2 235.5 159.7 260.7 203.6"/>
                <polygon class="st22" points="260.7 203.6 311.1 203.6 285.6 247.1 235.3 247.1 260.7 203.6"/>
                <polygon class="st33" points="235.5 159.7 285.9 159.7 311.1 203.6 260.7 203.6 235.5 159.7"/>
              </g>
            </g>
            <animateMotion dur="6s" repeatCount="indefinite" rotate="0" path="M 10,0
        A 10,10 0 1,1 -10,0
        A 10,10 0 1,1  10,0"/>
            <g>
              <ellipse class="st9" cx="278.7" cy="156.8" rx="16.5" ry="4.5" transform="translate(-37.8 111.4) rotate(-21.2)"/>
              <rect class="st11" x="277.7" y="151.4" width="2.3" height="11.6" transform="translate(595.6 203) rotate(158.8)"/>
              <path class="st18" d="M290.3,149.5c2,0,3.4.4,3.7,1.3,3.7,9.6-.1,20.1-8.7,23.4-1.8.7-3.6,1-5.4,1-7,0-13.8-4.8-16.8-12.4-.9-2.3,5.3-6.9,13.8-10.2,5.2-2,10.1-3.1,13.3-3.1M290.3,146.4c-3.7,0-9,1.2-14.4,3.3-4.4,1.7-8.3,3.8-11.1,5.9-4,2.9-5.4,5.8-4.4,8.4,3.3,8.6,11.3,14.4,19.7,14.4s4.4-.4,6.5-1.2c5-1.9,8.8-5.9,10.7-11.2,1.9-5.1,1.8-10.9-.3-16.3-.6-1.5-2.2-3.3-6.7-3.3h0Z"/>
              <circle class="st3" cx="276.7" cy="151.8" r="2.2"/>
              <path class="st4" d="M280.3,161c-8.5,3.3-16.1,4.1-17,1.8,3.7,9.6,13.6,14.7,22.2,11.4,8.5-3.3,12.4-13.8,8.7-23.4.9,2.3-5.3,6.9-13.8,10.2Z"/>
            </g>
          </g>
          <g>
            <path class="st18" d="M465.9,109.3c1.5,0,2.7-.2,3.8-.7,1-.5,1.9-1.2,2.6-2,.7-.8,1.2-1.8,1.5-2.9.3-1.1.5-2.2.5-3.4v-.6h4.3v.6c0,1.8-.3,3.5-.8,5.1-.6,1.6-1.4,3-2.4,4.2-1.1,1.2-2.4,2.1-4,2.8-1.6.7-3.4,1-5.5,1-4,0-7.1-1.3-9.3-3.8-2.2-2.5-3.4-6.2-3.4-11v-8c0-4.7,1.1-8.3,3.4-10.9,2.2-2.6,5.3-3.9,9.3-3.9s3.9.3,5.5,1c1.6.7,2.9,1.6,4,2.8,1.1,1.2,1.9,2.6,2.4,4.2.5,1.6.8,3.3.8,5.1v.6h-4.3v-.6c0-1.2-.2-2.3-.5-3.4-.3-1.1-.8-2.1-1.5-2.9-.7-.8-1.5-1.5-2.6-2-1-.5-2.3-.7-3.8-.7-2.8,0-4.9,1-6.3,3-1.4,2-2.1,4.7-2.1,8v7.4c0,3.5.7,6.3,2.1,8.2s3.5,2.9,6.3,2.9Z"/>
            <path class="st18" d="M505.8,86.9c0-1.2-.2-2.2-.7-3.1-.5-.9-1.1-1.6-1.9-2.2-.8-.6-1.7-1-2.7-1.3-1-.3-2.1-.5-3.2-.5s-1.9.1-2.8.4c-.9.3-1.7.6-2.4,1.1-.7.5-1.3,1.1-1.7,1.8-.4.7-.6,1.5-.6,2.4v.3c0,1,.2,1.8.6,2.6.4.7,1,1.3,1.8,1.8.8.5,1.8.9,3,1.2,1.2.3,2.6.6,4.2.9,3.8.6,6.6,1.7,8.4,3.3,1.8,1.6,2.7,3.8,2.7,6.6v.6c0,1.5-.3,3-.8,4.3s-1.3,2.4-2.4,3.3c-1,.9-2.3,1.6-3.9,2.2-1.5.5-3.3.8-5.4.8s-4.3-.3-6.1-1c-1.8-.7-3.2-1.6-4.4-2.8s-2.1-2.6-2.7-4.2c-.6-1.6-.9-3.3-.9-5.2v-1.5h4.3v1.2c0,3.2.9,5.5,2.6,7.1,1.7,1.6,4.2,2.4,7.2,2.4s4.7-.6,6.1-1.8c1.4-1.2,2-2.8,2-4.7v-.3c0-1.9-.7-3.3-2.1-4.3-1.4-1-3.7-1.7-6.8-2.2-1.8-.2-3.5-.6-4.9-1.1-1.5-.5-2.7-1.2-3.7-2-1-.8-1.8-1.8-2.4-2.9-.6-1.1-.8-2.5-.8-4v-.6c0-1.4.3-2.7.9-3.9.6-1.2,1.4-2.2,2.4-3,1-.9,2.3-1.5,3.8-2,1.5-.5,3.1-.7,4.8-.7s3.8.3,5.4.9c1.6.6,2.9,1.4,4,2.3,1.1,1,1.9,2.1,2.5,3.5.6,1.3.9,2.7.9,4.2v2.2h-4.3v-1.9Z"/>
            <path class="st18" d="M517.4,76.5h22.9v4h-9.3v28h9.3v4h-22.9v-4h9.3v-28h-9.3v-4Z"/>
            <path class="st18" d="M457.2,126.6l8.1,16h.9l8.1-16h4.7l-9,17.7v.6l9,17.8h-4.7l-8.1-16.1h-.9l-8.1,16.1h-4.7l9-17.8v-.6l-9-17.7h4.7Z"/>
            <path class="st18" d="M488.9,151.1c.1,2.5.9,4.6,2.4,6.1s3.5,2.3,6.2,2.3,2.3-.1,3.1-.4c.9-.3,1.7-.7,2.3-1.1.6-.5,1.2-1,1.5-1.7.4-.6.7-1.3,1-2l3.8,1c-.7,2.4-2.1,4.3-4,5.8s-4.6,2.2-7.9,2.2-3.5-.3-5-1c-1.5-.6-2.8-1.5-3.9-2.7-1.1-1.2-2-2.6-2.6-4.2-.6-1.6-.9-3.4-.9-5.4v-1.2c0-1.8.3-3.5,1-5,.6-1.5,1.5-2.9,2.7-4,1.1-1.1,2.5-2,4-2.6,1.5-.6,3.2-1,5-1s3.9.4,5.4,1.2c1.5.8,2.8,1.7,3.8,2.9,1,1.1,1.7,2.4,2.2,3.7.5,1.3.7,2.6.7,3.7v3.3h-20.6ZM497.5,140.2c-1.1,0-2.2.2-3.2.5-1,.4-1.8.9-2.6,1.5-.7.7-1.3,1.4-1.8,2.3-.5.9-.8,1.8-.9,2.9h16.5c0-1.1-.3-2.1-.8-3-.5-.9-1.1-1.6-1.8-2.3-.7-.6-1.6-1.1-2.5-1.4-.9-.3-1.9-.5-2.9-.5Z"/>
            <path class="st18" d="M521.6,162.7h-4v-25.6h4v4.3h.6c1.6-3.4,4.3-5.1,8.3-5.1s5.3.9,7.1,2.8c1.8,1.8,2.6,4.6,2.6,8.3v15.3h-4v-14.4c0-2.7-.6-4.7-1.8-6-1.2-1.3-2.8-2-4.9-2s-4.4.8-5.8,2.5c-1.4,1.7-2.1,3.9-2.1,6.7v13.3Z"/>
            <path class="st18" d="M453,190.7c0-4.7,1.1-8.3,3.4-10.9,2.2-2.6,5.3-3.9,9.3-3.9s7.1,1.3,9.3,3.9c2.2,2.6,3.4,6.2,3.4,10.9v8c0,4.8-1.1,8.5-3.4,11-2.2,2.5-5.3,3.8-9.3,3.8s-7.1-1.3-9.3-3.8c-2.2-2.5-3.4-6.2-3.4-11v-8ZM465.7,209.5c2.8,0,4.9-1,6.3-2.9s2.1-4.6,2.1-8.2v-7.4c0-3.3-.7-6-2.1-8-1.4-2-3.5-3-6.3-3s-4.9,1-6.3,3c-1.4,2-2.1,4.7-2.1,8v7.4c0,3.5.7,6.3,2.1,8.2s3.5,2.9,6.3,2.9Z"/>
            <path class="st18" d="M484.6,187.2h9.3v3.4h.6c.7-1.4,1.6-2.4,2.8-3.1,1.2-.7,2.6-1,4.1-1,2.6,0,4.7.8,6.2,2.5,1.6,1.7,2.4,4.1,2.5,7.4l-4.2.6c0-2.4-.6-4.1-1.7-5.1-1.1-1-2.5-1.6-4.2-1.6s-2,.2-2.8.6c-.8.4-1.4,1-1.9,1.7-.5.7-.9,1.6-1.1,2.5-.2,1-.4,2-.4,3.1v10.8h6.5v3.7h-16.4v-3.7h5.9v-18.1h-5.3v-3.7Z"/>
            <path class="st18" d="M541.5,203.7c-.3,1.4-.7,2.7-1.4,3.9-.7,1.2-1.5,2.2-2.6,3.1-1,.9-2.2,1.6-3.6,2s-2.9.7-4.6.7-3.5-.3-5.1-.9-3-1.4-4.2-2.6c-1.2-1.1-2.2-2.5-2.9-4.1-.7-1.6-1.1-3.5-1.1-5.6v-.6c0-2.1.4-3.9,1.1-5.6.7-1.6,1.7-3,2.9-4.2,1.2-1.1,2.6-2,4.2-2.6s3.3-.9,5.1-.9,3.1.2,4.5.7c1.4.5,2.6,1.2,3.6,2s1.9,1.9,2.6,3.1c.7,1.2,1.1,2.5,1.4,3.9l-4,.9c-.1-.9-.4-1.8-.7-2.6-.4-.8-.9-1.6-1.6-2.2-.7-.6-1.5-1.1-2.5-1.5-1-.4-2.1-.6-3.4-.6s-2.4.2-3.5.7c-1.1.5-2,1.1-2.9,2-.8.8-1.5,1.8-1.9,3-.5,1.2-.7,2.4-.7,3.8v.6c0,1.4.2,2.7.7,3.9.5,1.2,1.1,2.1,1.9,2.9.8.8,1.8,1.4,2.9,1.8,1.1.4,2.3.6,3.6.6s2.4-.2,3.3-.6c.9-.4,1.8-.9,2.4-1.5.7-.6,1.2-1.4,1.6-2.2.4-.8.7-1.7.8-2.6l4,.9Z"/>
            <path class="st18" d="M553.1,212.8h-4v-36.1h4v15.2h.6c.8-1.7,1.9-3,3.3-3.9,1.4-1,3.2-1.4,5.2-1.4s5,.9,6.8,2.8c1.7,1.8,2.6,4.6,2.6,8.3v15.3h-4v-14.4c0-2.7-.6-4.7-1.8-6-1.2-1.3-2.8-2-4.9-2s-4.4.8-5.8,2.5c-1.4,1.7-2.1,3.9-2.1,6.7v13.3Z"/>
            <path class="st18" d="M583.6,201.2c.1,2.5.9,4.6,2.4,6.1s3.5,2.3,6.2,2.3,2.3-.1,3.1-.4c.9-.3,1.7-.7,2.3-1.1.6-.5,1.2-1,1.5-1.7.4-.6.7-1.3,1-2l3.8,1c-.7,2.4-2.1,4.3-4,5.8s-4.6,2.2-7.9,2.2-3.5-.3-5-1c-1.5-.6-2.8-1.5-3.9-2.7-1.1-1.2-2-2.6-2.6-4.2-.6-1.6-.9-3.4-.9-5.4v-1.2c0-1.8.3-3.5,1-5,.6-1.5,1.5-2.9,2.7-4,1.1-1.1,2.5-2,4-2.6,1.5-.6,3.2-1,5-1s3.9.4,5.4,1.2c1.5.8,2.8,1.7,3.8,2.9,1,1.1,1.7,2.4,2.2,3.7.5,1.3.7,2.6.7,3.7v3.3h-20.6ZM592.2,190.3c-1.1,0-2.2.2-3.2.5-1,.4-1.8.9-2.6,1.5-.7.7-1.3,1.4-1.8,2.3-.5.9-.8,1.8-.9,2.9h16.5c0-1.1-.3-2.1-.8-3-.5-.9-1.1-1.6-1.8-2.3-.7-.6-1.6-1.1-2.5-1.4-.9-.3-1.9-.5-2.9-.5Z"/>
            <path class="st18" d="M617.6,193.8c0,1.2.5,2.2,1.6,2.8,1,.7,3,1.1,5.8,1.3,3,.2,5.3,1,6.8,2.1,1.6,1.2,2.3,2.9,2.3,5.2v.3c0,1.2-.2,2.3-.7,3.3-.5,1-1.2,1.8-2.1,2.5-.9.7-1.9,1.2-3.2,1.6-1.3.4-2.6.5-4.1.5s-3.7-.3-5.1-.8c-1.4-.5-2.6-1.2-3.6-2.1s-1.7-1.9-2.1-3c-.5-1.1-.8-2.2-.8-3.4l3.8-.9c.2,2,.9,3.5,2.3,4.7,1.3,1.2,3.1,1.8,5.4,1.8s3.4-.4,4.6-1.1c1.2-.7,1.7-1.8,1.7-3.1s-.6-2.5-1.7-3.1c-1.1-.6-3-1-5.5-1.2-3-.2-5.2-.9-6.8-2.1-1.6-1.2-2.4-2.9-2.4-5.1v-.3c0-1.2.3-2.3.8-3.2.5-.9,1.2-1.7,2.1-2.3s1.9-1.1,3-1.4c1.1-.3,2.3-.5,3.5-.5s3.2.2,4.4.7c1.3.5,2.3,1.1,3.2,1.8.9.7,1.5,1.6,2,2.6.5,1,.8,1.9.9,2.9l-3.8.9c-.2-1.6-.8-2.9-2-3.9-1.2-.9-2.7-1.4-4.5-1.4s-1.4,0-2.1.2c-.7.2-1.3.4-1.8.7s-.9.7-1.2,1.2-.5,1-.5,1.6Z"/>
            <path class="st18" d="M642.9,187.2h8v-10.5h4v10.5h9.9v3.7h-9.9v16.6c0,1,.5,1.5,1.4,1.5h7.3v3.7h-8.7c-1.2,0-2.1-.4-2.9-1.1-.7-.8-1.1-1.7-1.1-2.9v-17.8h-8v-3.7Z"/>
            <path class="st18" d="M673.9,187.2h9.3v3.4h.6c.7-1.4,1.6-2.4,2.8-3.1,1.2-.7,2.6-1,4.1-1,2.6,0,4.7.8,6.2,2.5,1.6,1.7,2.4,4.1,2.5,7.4l-4.2.6c0-2.4-.6-4.1-1.7-5.1-1.1-1-2.5-1.6-4.2-1.6s-2,.2-2.8.6c-.8.4-1.4,1-1.9,1.7-.5.7-.9,1.6-1.1,2.5-.2,1-.4,2-.4,3.1v10.8h6.5v3.7h-16.4v-3.7h5.9v-18.1h-5.3v-3.7Z"/>
            <path class="st18" d="M725.5,208.4h-.6c-.8,1.7-2,3-3.4,3.8-1.5.8-3,1.2-4.6,1.2s-3.2-.3-4.7-.9-2.7-1.4-3.8-2.5c-1.1-1.1-1.9-2.5-2.6-4.1-.6-1.6-.9-3.5-.9-5.6v-.8c0-2.1.3-4,.9-5.6s1.5-3,2.6-4.1c1.1-1.1,2.3-2,3.8-2.6s3-.9,4.6-.9,3.3.4,4.8,1.2,2.6,2,3.4,3.6h.6v-4h4v20.3c0,1,.5,1.5,1.4,1.5h1.3v3.7h-2.7c-1.2,0-2.1-.4-2.9-1.1-.7-.8-1.1-1.7-1.1-2.9v-.3ZM717.3,209.7c1.2,0,2.3-.2,3.3-.7,1-.4,1.9-1.1,2.6-1.9.7-.8,1.3-1.8,1.7-3,.4-1.2.6-2.4.6-3.8v-.6c0-1.4-.2-2.6-.6-3.8-.4-1.2-1-2.1-1.7-3-.7-.8-1.6-1.5-2.6-1.9-1-.5-2.1-.7-3.3-.7s-2.3.2-3.3.7c-1,.4-1.9,1.1-2.6,1.9-.7.8-1.3,1.8-1.7,2.9-.4,1.2-.6,2.4-.6,3.8v.8c0,2.9.8,5.2,2.3,6.8,1.5,1.6,3.5,2.4,6,2.4Z"/>
            <path class="st18" d="M453.7,226.8h11.9c4.5,0,7.7,1.1,9.8,3.2,2.1,2.1,3.1,5.5,3.1,10.2v9.3c0,4.7-1,8.1-3.1,10.2-2.1,2.1-5.3,3.2-9.8,3.2h-11.9v-4.1h3.1v-28h-3.1v-4ZM465,258.8c1.6,0,2.9-.2,4.1-.5,1.2-.3,2.1-.8,2.9-1.6.8-.7,1.3-1.7,1.7-3,.4-1.2.5-2.8.5-4.7v-8.7c0-1.9-.2-3.5-.5-4.7-.4-1.2-.9-2.2-1.7-3-.8-.7-1.7-1.3-2.9-1.6-1.2-.3-2.5-.5-4.1-.5h-3.8v28h3.8Z"/>
            <path class="st18" d="M484.6,237.3h9.3v3.4h.6c.7-1.4,1.6-2.4,2.8-3.1,1.2-.7,2.6-1,4.1-1,2.6,0,4.7.8,6.2,2.5,1.6,1.7,2.4,4.1,2.5,7.4l-4.2.6c0-2.4-.6-4.1-1.7-5.1-1.1-1-2.5-1.6-4.2-1.6s-2,.2-2.8.6c-.8.4-1.4,1-1.9,1.7-.5.7-.9,1.6-1.1,2.5-.2,1-.4,2-.4,3.1v10.8h6.5v3.7h-16.4v-3.7h5.9v-18.1h-5.3v-3.7Z"/>
            <path class="st18" d="M518.2,259.1h9v-18.1h-8v-3.7h12.1v21.9h8.4v3.7h-21.4v-3.7ZM525.5,229.6c0-1,.4-1.8,1.1-2.6s1.6-1.1,2.6-1.1,1.8.4,2.6,1.1c.7.7,1.1,1.6,1.1,2.6s-.4,1.8-1.1,2.6c-.7.7-1.6,1.1-2.6,1.1s-1.8-.4-2.6-1.1c-.7-.7-1.1-1.6-1.1-2.6Z"/>
            <path class="st18" d="M564.3,262.8h-7.9l-8.9-25.6h4.7l7.8,23.7h.6l7.8-23.7h4.7l-8.9,25.6Z"/>
            <path class="st18" d="M583.6,251.3c.1,2.5.9,4.6,2.4,6.1s3.5,2.3,6.2,2.3,2.3-.1,3.1-.4c.9-.3,1.7-.7,2.3-1.1.6-.5,1.2-1,1.5-1.7.4-.6.7-1.3,1-2l3.8,1c-.7,2.4-2.1,4.3-4,5.8s-4.6,2.2-7.9,2.2-3.5-.3-5-1c-1.5-.6-2.8-1.5-3.9-2.7-1.1-1.2-2-2.6-2.6-4.2-.6-1.6-.9-3.4-.9-5.4v-1.2c0-1.8.3-3.5,1-5,.6-1.5,1.5-2.9,2.7-4,1.1-1.1,2.5-2,4-2.6,1.5-.6,3.2-1,5-1s3.9.4,5.4,1.2c1.5.8,2.8,1.7,3.8,2.9,1,1.1,1.7,2.4,2.2,3.7.5,1.3.7,2.6.7,3.7v3.3h-20.6ZM592.2,240.4c-1.1,0-2.2.2-3.2.5-1,.4-1.8.9-2.6,1.5-.7.7-1.3,1.4-1.8,2.3-.5.9-.8,1.8-.9,2.9h16.5c0-1.1-.3-2.1-.8-3-.5-.9-1.1-1.6-1.8-2.3-.7-.6-1.6-1.1-2.5-1.4-.9-.3-1.9-.5-2.9-.5Z"/>
            <path class="st18" d="M610.8,237.3h9.3v3.4h.6c.7-1.4,1.6-2.4,2.8-3.1,1.2-.7,2.6-1,4.1-1,2.6,0,4.7.8,6.2,2.5,1.6,1.7,2.4,4.1,2.5,7.4l-4.2.6c0-2.4-.6-4.1-1.7-5.1-1.1-1-2.5-1.6-4.2-1.6s-2,.2-2.8.6c-.8.4-1.4,1-1.9,1.7-.5.7-.9,1.6-1.1,2.5-.2,1-.4,2-.4,3.1v10.8h6.5v3.7h-16.4v-3.7h5.9v-18.1h-5.3v-3.7Z"/>
          </g>
          <g class="st23">
            <path class="st18" d="M457.1,304.4c-1.3,0-2.3-.4-3.1-1.1-.8-.7-1.1-1.8-1.1-3.3v-2.5c0-1.4.4-2.5,1.1-3.3.8-.7,1.8-1.1,3.1-1.1s2.2.4,2.9,1.1c.7.7,1,1.7,1,2.9h0c0,0-1.3,0-1.3,0h0c0-.9-.2-1.6-.7-2.1-.4-.5-1.1-.8-2-.8s-1.6.3-2.1.8-.8,1.3-.8,2.3v2.5c0,1,.3,1.8.8,2.3s1.2.8,2.1.8,1.6-.3,2-.8c.4-.5.7-1.2.7-2v-.2h1.3v.2c0,1.2-.3,2.2-1,2.9s-1.7,1.1-2.9,1.1Z"/>
            <path class="st18" d="M466.6,304.4c-.8,0-1.5-.1-2.1-.4-.6-.3-1.1-.7-1.5-1.3-.4-.6-.5-1.3-.5-2.1v-.3h1.3v.3c0,.9.3,1.6.8,2,.5.4,1.2.7,2,.7s1.5-.2,1.9-.6c.4-.4.7-.9.7-1.4s0-.7-.3-1-.5-.4-.8-.6c-.4-.1-.8-.3-1.3-.4l-.8-.2c-.6-.2-1.2-.4-1.7-.6-.5-.2-.9-.5-1.1-.9-.3-.4-.4-.9-.4-1.5s.2-1.1.5-1.6c.3-.4.7-.8,1.3-1,.5-.2,1.2-.4,1.9-.4s1.4.1,2,.4,1,.6,1.4,1.1c.3.5.5,1.1.5,1.8v.6h-1.3v-.6c0-.5-.1-.9-.3-1.3-.2-.3-.5-.6-.9-.7-.4-.2-.8-.2-1.3-.2-.7,0-1.3.2-1.7.5-.4.3-.6.8-.6,1.3s0,.7.3.9c.2.2.4.4.8.6.3.1.7.3,1.2.4l.8.2c.6.1,1.2.3,1.7.5.5.2.9.5,1.2.9s.4.9.4,1.5-.2,1.2-.5,1.7c-.3.5-.8.8-1.3,1.1s-1.3.4-2,.4Z"/>
            <path class="st18" d="M472.5,304.2v-10.8h1.3v10.8h-1.3Z"/>
            <path class="st18" d="M479.7,304.2v-1.2h1.5v-8.5h-1.5v-1.2h4.2c1.4,0,2.5.4,3.3,1.1.8.7,1.2,1.8,1.2,3.3v2c0,1.5-.4,2.6-1.2,3.3-.8.7-1.9,1.1-3.3,1.1h-4.2ZM482.5,303h1.4c1,0,1.8-.3,2.4-.8.5-.5.8-1.3.8-2.4v-2.1c0-1.1-.3-1.9-.8-2.4-.5-.5-1.3-.8-2.4-.8h-1.4v8.4Z"/>
            <path class="st18" d="M490.4,304.2v-7.5h1.2v.9h.2c.1-.3.3-.6.6-.7.3-.2.6-.2,1.1-.2h.9v1.1h-1c-.5,0-1,.2-1.3.5s-.5.8-.5,1.4v4.6h-1.2Z"/>
            <path class="st18" d="M496.8,295.5c-.3,0-.5,0-.7-.3-.2-.2-.3-.4-.3-.7s0-.5.3-.7c.2-.2.4-.3.7-.3s.5,0,.7.3c.2.2.3.4.3.7s0,.5-.3.7c-.2.2-.4.3-.7.3ZM496.2,304.2v-7.5h1.2v7.5h-1.2Z"/>
            <path class="st18" d="M501.9,304.2l-2.7-7.5h1.3l2.3,6.6h.2l2.3-6.6h1.3l-2.7,7.5h-1.9Z"/>
            <path class="st18" d="M511.4,304.4c-.8,0-1.4-.2-2-.5-.6-.3-1-.8-1.3-1.4s-.5-1.3-.5-2v-.2c0-.8.2-1.5.5-2s.8-1,1.3-1.4,1.2-.5,1.9-.5,1.3.2,1.9.5c.5.3,1,.7,1.3,1.3.3.6.5,1.2.5,2v.6h-6.1c0,.8.3,1.4.8,1.9.5.5,1.1.7,1.8.7s1.1-.1,1.5-.4c.3-.3.6-.7.8-1.1l1,.5c-.2.3-.4.6-.6,1-.3.3-.6.6-1.1.8-.4.2-1,.3-1.7.3ZM508.8,299.7h4.9c0-.7-.3-1.2-.7-1.6-.4-.4-1-.6-1.7-.6s-1.3.2-1.7.6c-.4.4-.7.9-.8,1.6Z"/>
            <path class="st18" d="M517.1,304.2v-7.5h1.2v.9h.2c.1-.3.3-.6.6-.7.3-.2.6-.2,1.1-.2h.9v1.1h-1c-.5,0-1,.2-1.3.5s-.5.8-.5,1.4v4.6h-1.2Z"/>
            <path class="st18" d="M528.3,304.2v-6.5h-2.3v-1.1h2.3v-1.9c0-.4.1-.7.3-1,.2-.2.6-.4,1-.4h1.9v1h-1.6c-.3,0-.5.2-.5.5v1.7h2.4v1.1h-2.4v6.5h-1.2Z"/>
            <path class="st18" d="M536.7,304.4c-.8,0-1.4-.2-2-.5s-1-.8-1.4-1.3c-.3-.6-.5-1.3-.5-2.1v-.2c0-.8.2-1.5.5-2,.3-.6.8-1,1.4-1.4.6-.3,1.2-.5,2-.5s1.4.2,2,.5c.6.3,1,.8,1.4,1.4s.5,1.3.5,2v.2c0,.8-.2,1.5-.5,2.1-.3.6-.8,1-1.4,1.3-.6.3-1.2.5-2,.5ZM536.7,303.3c.8,0,1.4-.3,1.9-.8.5-.5.7-1.2.7-2.1h0c0-1-.2-1.7-.7-2.2s-1.1-.8-1.9-.8-1.4.3-1.9.8c-.5.5-.7,1.2-.7,2.1h0c0,1,.2,1.7.7,2.2.5.5,1.1.8,1.9.8Z"/>
            <path class="st18" d="M542.7,304.2v-7.5h1.2v.9h.2c.1-.3.3-.6.6-.7.3-.2.6-.2,1.1-.2h.9v1.1h-1c-.5,0-1,.2-1.3.5s-.5.8-.5,1.4v4.6h-1.2Z"/>
            <path class="st18" d="M551.7,304.2l3.5-5.4-3.4-5.3h1.5l2.7,4.4h.2l2.8-4.4h1.5l-3.4,5.3,3.5,5.4h-1.5l-2.8-4.5h-.2l-2.8,4.5h-1.5Z"/>
            <path class="st18" d="M565.4,304.4c-.8,0-1.4-.2-2-.5-.6-.3-1-.8-1.3-1.4s-.5-1.3-.5-2v-.2c0-.8.2-1.5.5-2s.8-1,1.3-1.4,1.2-.5,1.9-.5,1.3.2,1.9.5c.5.3,1,.7,1.3,1.3.3.6.5,1.2.5,2v.6h-6.1c0,.8.3,1.4.8,1.9.5.5,1.1.7,1.8.7s1.1-.1,1.5-.4c.3-.3.6-.7.8-1.1l1,.5c-.2.3-.4.6-.6,1-.3.3-.6.6-1.1.8-.4.2-1,.3-1.7.3ZM562.9,299.7h4.9c0-.7-.3-1.2-.7-1.6-.4-.4-1-.6-1.7-.6s-1.3.2-1.7.6c-.4.4-.7.9-.8,1.6Z"/>
            <path class="st18" d="M571.1,304.2v-7.5h1.2v1.3h.2c.2-.4.4-.7.8-1,.4-.3,1-.4,1.7-.4s1.1.1,1.5.4c.4.2.8.6,1.1,1,.3.5.4,1,.4,1.7v4.5h-1.2v-4.5c0-.7-.2-1.3-.6-1.6s-.9-.5-1.5-.5-1.3.2-1.8.7c-.5.5-.7,1.2-.7,2.1v3.8h-1.2Z"/>
            <path class="st18" d="M580.5,300.8v-1.1h4.6v1.1h-4.6Z"/>
            <path class="st18" d="M591,304.4c-.8,0-1.4-.2-2-.5s-1-.8-1.4-1.3c-.3-.6-.5-1.3-.5-2.1v-.2c0-.8.2-1.5.5-2,.3-.6.8-1,1.4-1.4.6-.3,1.2-.5,2-.5s1.4.2,2,.5c.6.3,1,.8,1.4,1.4s.5,1.3.5,2v.2c0,.8-.2,1.5-.5,2.1-.3.6-.8,1-1.4,1.3-.6.3-1.2.5-2,.5ZM591,303.3c.8,0,1.4-.3,1.9-.8.5-.5.7-1.2.7-2.1h0c0-1-.2-1.7-.7-2.2s-1.1-.8-1.9-.8-1.4.3-1.9.8c-.5.5-.7,1.2-.7,2.1h0c0,1,.2,1.7.7,2.2.5.5,1.1.8,1.9.8Z"/>
            <path class="st18" d="M597,304.2v-7.5h1.2v.9h.2c.1-.3.3-.6.6-.7.3-.2.6-.2,1.1-.2h.9v1.1h-1c-.5,0-1,.2-1.3.5s-.5.8-.5,1.4v4.6h-1.2Z"/>
            <path class="st18" d="M606,304.4c-.7,0-1.4-.2-2-.5s-1-.8-1.4-1.3c-.3-.6-.5-1.3-.5-2.1v-.2c0-.8.2-1.5.5-2.1.3-.6.8-1,1.4-1.3s1.2-.5,2-.5,1.3.1,1.8.4c.5.3.9.6,1.2,1.1.3.4.5.9.6,1.4l-1.2.2c0-.4-.2-.7-.4-1-.2-.3-.5-.6-.8-.7-.3-.2-.8-.3-1.2-.3s-1,.1-1.3.3c-.4.2-.7.5-.9,1-.2.4-.3.9-.3,1.5h0c0,.7.1,1.2.3,1.6.2.4.5.7.9,1,.4.2.8.3,1.3.3.7,0,1.3-.2,1.7-.6.4-.4.6-.9.7-1.4l1.2.3c-.1.5-.3,1-.6,1.4-.3.4-.7.8-1.2,1.1-.5.3-1.1.4-1.8.4Z"/>
            <path class="st18" d="M611.7,304.2v-10.8h1.2v4.4h.2c.1-.2.3-.4.5-.6.2-.2.5-.4.8-.5.3-.1.8-.2,1.3-.2s1.1.1,1.5.4c.4.2.8.6,1.1,1,.3.5.4,1,.4,1.7v4.5h-1.2v-4.5c0-.7-.2-1.3-.6-1.6s-.9-.5-1.5-.5-1.3.2-1.8.7c-.5.5-.7,1.2-.7,2.1v3.8h-1.2Z"/>
            <path class="st18" d="M624.6,304.4c-.8,0-1.4-.2-2-.5-.6-.3-1-.8-1.3-1.4s-.5-1.3-.5-2v-.2c0-.8.2-1.5.5-2s.8-1,1.3-1.4,1.2-.5,1.9-.5,1.3.2,1.9.5c.5.3,1,.7,1.3,1.3.3.6.5,1.2.5,2v.6h-6.1c0,.8.3,1.4.8,1.9.5.5,1.1.7,1.8.7s1.1-.1,1.5-.4c.3-.3.6-.7.8-1.1l1,.5c-.2.3-.4.6-.6,1-.3.3-.6.6-1.1.8-.4.2-1,.3-1.7.3ZM622,299.7h4.9c0-.7-.3-1.2-.7-1.6-.4-.4-1-.6-1.7-.6s-1.3.2-1.7.6c-.4.4-.7.9-.8,1.6Z"/>
            <path class="st18" d="M633.3,304.4c-.9,0-1.7-.2-2.4-.6-.6-.4-1-1.1-1.2-2l1.2-.3c0,.5.2.9.5,1.2.2.3.5.5.8.6.3.1.7.2,1.1.2.6,0,1-.1,1.3-.3.3-.2.5-.5.5-.9s-.2-.7-.5-.8c-.3-.2-.7-.3-1.3-.4h-.6c-.5-.2-.9-.3-1.3-.5-.4-.2-.7-.4-1-.7-.2-.3-.4-.7-.4-1.1,0-.7.3-1.2.8-1.6.5-.4,1.2-.6,2.1-.6s1.5.2,2.1.6c.5.4.9.9,1,1.6l-1.1.3c0-.5-.3-.9-.7-1.1-.3-.2-.8-.3-1.3-.3s-.9,0-1.2.3c-.3.2-.4.5-.4.8s.1.6.4.8c.3.2.7.3,1.1.4h.6c.5.2,1,.3,1.4.5.4.2.8.4,1,.7.3.3.4.7.4,1.2,0,.7-.3,1.3-.8,1.7-.5.4-1.3.6-2.2.6Z"/>
            <path class="st18" d="M641,304.2c-.4,0-.8-.1-1-.4s-.3-.6-.3-1v-5.1h-2.3v-1.1h2.3v-2.7h1.2v2.7h2.5v1.1h-2.5v4.9c0,.3.1.5.4.5h1.7v1h-2Z"/>
            <path class="st18" d="M645.3,304.2v-7.5h1.2v.9h.2c.1-.3.3-.6.6-.7.3-.2.6-.2,1.1-.2h.9v1.1h-1c-.5,0-1,.2-1.3.5s-.5.8-.5,1.4v4.6h-1.2Z"/>
            <path class="st18" d="M653.1,304.4c-.5,0-1,0-1.4-.3s-.8-.5-1-.8c-.2-.3-.4-.8-.4-1.3s.1-.9.4-1.3.6-.6,1-.8c.4-.2.9-.3,1.4-.3h2.5v-.6c0-.5-.2-1-.5-1.3-.3-.3-.8-.5-1.4-.5s-1.1.1-1.4.4c-.3.3-.6.7-.7,1.2l-1.1-.4c.1-.4.3-.8.6-1.1s.6-.6,1.1-.8c.4-.2,1-.3,1.6-.3,1,0,1.7.2,2.2.7.5.5.8,1.2.8,2.1v3.4c0,.3.1.5.4.5h.7v1h-1.1c-.3,0-.6,0-.8-.3-.2-.2-.3-.4-.3-.8h0c0,0-.2,0-.2,0-.1.2-.3.4-.5.6-.2.2-.4.4-.8.5-.3.1-.8.2-1.3.2ZM653.3,303.4c.7,0,1.3-.2,1.7-.6s.7-1,.7-1.8v-.2h-2.5c-.5,0-.9.1-1.2.3-.3.2-.5.5-.5.9s.2.7.5,1c.3.2.7.4,1.3.4Z"/>
            <path class="st18" d="M659.4,300.8v-1.1h4.6v1.1h-4.6Z"/>
            <path class="st18" d="M666.5,304.2v-7.5h1.2v.9h.2c.1-.3.4-.5.7-.7.3-.2.8-.3,1.4-.3s1.1.1,1.4.4c.4.3.6.6.8.9h.2c.2-.4.4-.7.8-.9.4-.3.8-.4,1.5-.4s.9.1,1.3.3c.4.2.7.5.9.9.2.4.3.8.3,1.4v5.1h-1.2v-5c0-.5-.1-.9-.4-1.2-.3-.3-.7-.4-1.2-.4s-1,.2-1.4.5c-.4.4-.5.9-.5,1.6v4.5h-1.2v-5c0-.5-.1-.9-.4-1.2s-.7-.4-1.2-.4-1,.2-1.4.5c-.4.4-.5.9-.5,1.6v4.5h-1.2Z"/>
            <path class="st18" d="M682,304.4c-.5,0-1,0-1.4-.3s-.8-.5-1-.8c-.2-.3-.4-.8-.4-1.3s.1-.9.4-1.3.6-.6,1-.8c.4-.2.9-.3,1.4-.3h2.5v-.6c0-.5-.2-1-.5-1.3-.3-.3-.8-.5-1.4-.5s-1.1.1-1.4.4c-.3.3-.6.7-.7,1.2l-1.1-.4c.1-.4.3-.8.6-1.1s.6-.6,1.1-.8c.4-.2,1-.3,1.6-.3,1,0,1.7.2,2.2.7.5.5.8,1.2.8,2.1v3.4c0,.3.1.5.4.5h.7v1h-1.1c-.3,0-.6,0-.8-.3-.2-.2-.3-.4-.3-.8h0c0,0-.2,0-.2,0-.1.2-.3.4-.5.6-.2.2-.4.4-.8.5-.3.1-.8.2-1.3.2ZM682.2,303.4c.7,0,1.3-.2,1.7-.6s.7-1,.7-1.8v-.2h-2.5c-.5,0-.9.1-1.2.3-.3.2-.5.5-.5.9s.2.7.5,1c.3.2.7.4,1.3.4Z"/>
            <path class="st18" d="M688.6,304.2v-7.5h1.2v1.3h.2c.2-.4.4-.7.8-1,.4-.3,1-.4,1.7-.4s1.1.1,1.5.4c.4.2.8.6,1.1,1,.3.5.4,1,.4,1.7v4.5h-1.2v-4.5c0-.7-.2-1.3-.6-1.6s-.9-.5-1.5-.5-1.3.2-1.8.7c-.5.5-.7,1.2-.7,2.1v3.8h-1.2Z"/>
            <path class="st18" d="M700.3,304.4c-.5,0-1,0-1.4-.3s-.8-.5-1-.8c-.2-.3-.4-.8-.4-1.3s.1-.9.4-1.3.6-.6,1-.8c.4-.2.9-.3,1.4-.3h2.5v-.6c0-.5-.2-1-.5-1.3-.3-.3-.8-.5-1.4-.5s-1.1.1-1.4.4c-.3.3-.6.7-.7,1.2l-1.1-.4c.1-.4.3-.8.6-1.1s.6-.6,1.1-.8c.4-.2,1-.3,1.6-.3,1,0,1.7.2,2.2.7.5.5.8,1.2.8,2.1v3.4c0,.3.1.5.4.5h.7v1h-1.1c-.3,0-.6,0-.8-.3-.2-.2-.3-.4-.3-.8h0c0,0-.2,0-.2,0-.1.2-.3.4-.5.6-.2.2-.4.4-.8.5-.3.1-.8.2-1.3.2ZM700.4,303.4c.7,0,1.3-.2,1.7-.6s.7-1,.7-1.8v-.2h-2.5c-.5,0-.9.1-1.2.3-.3.2-.5.5-.5.9s.2.7.5,1c.3.2.7.4,1.3.4Z"/>
            <path class="st18" d="M706.2,300.5v-.2c0-.8.2-1.5.5-2s.7-1,1.3-1.3c.5-.3,1.1-.5,1.8-.5s1.4.2,1.8.5c.4.3.7.6.9,1h.2v-1.2h1.2v9.3c0,.4-.1.7-.3,1-.2.2-.6.4-1,.4h-5.1v-1.1h4.8c.3,0,.5-.2.5-.5v-2.9h-.2c-.1.2-.3.4-.5.7-.2.2-.5.4-.9.5-.4.1-.8.2-1.3.2s-1.2-.2-1.8-.5c-.5-.3-1-.7-1.3-1.3-.3-.6-.5-1.2-.5-2ZM710.1,303.2c.8,0,1.4-.2,1.9-.7.5-.5.7-1.2.7-2h0c0-1-.2-1.7-.7-2.2-.5-.5-1.1-.7-1.9-.7s-1.4.2-1.9.7-.7,1.2-.7,2h0c0,1,.2,1.7.7,2.2.5.5,1.1.7,1.9.7Z"/>
            <path class="st18" d="M719.9,304.4c-.8,0-1.4-.2-2-.5-.6-.3-1-.8-1.3-1.4s-.5-1.3-.5-2v-.2c0-.8.2-1.5.5-2s.8-1,1.3-1.4,1.2-.5,1.9-.5,1.3.2,1.9.5c.5.3,1,.7,1.3,1.3.3.6.5,1.2.5,2v.6h-6.1c0,.8.3,1.4.8,1.9.5.5,1.1.7,1.8.7s1.1-.1,1.5-.4c.3-.3.6-.7.8-1.1l1,.5c-.2.3-.4.6-.6,1-.3.3-.6.6-1.1.8-.4.2-1,.3-1.7.3ZM717.3,299.7h4.9c0-.7-.3-1.2-.7-1.6-.4-.4-1-.6-1.7-.6s-1.3.2-1.7.6c-.4.4-.7.9-.8,1.6Z"/>
            <path class="st18" d="M728.8,304.4c-.6,0-1.2-.2-1.8-.5-.5-.3-1-.8-1.3-1.3-.3-.6-.5-1.3-.5-2.1v-.2c0-.8.2-1.5.5-2.1.3-.6.7-1,1.3-1.3s1.1-.5,1.8-.5,1,0,1.3.2c.4.1.7.3.9.5s.4.4.5.7h.2v-4.4h1.2v10.8h-1.2v-1.2h-.2c-.2.4-.5.7-1,1-.4.3-1,.4-1.8.4ZM729.1,303.3c.8,0,1.4-.2,1.9-.7.5-.5.7-1.2.7-2.1h0c0-1-.2-1.7-.7-2.2-.5-.5-1.1-.7-1.9-.7s-1.4.2-1.9.7-.7,1.2-.7,2.1h0c0,1,.2,1.7.7,2.2.5.5,1.1.7,1.9.7Z"/>
            <path class="st18" d="M452.6,323.1l3-3.8-2.9-3.7h1.5l2.2,2.9h.2l2.2-2.9h1.5l-2.9,3.7,3,3.8h-1.5l-2.3-3h-.2l-2.3,3h-1.5Z"/>
            <path class="st18" d="M465.3,323.3c-.7,0-1.4-.2-2-.5s-1-.8-1.4-1.3c-.3-.6-.5-1.3-.5-2.1v-.2c0-.8.2-1.5.5-2.1.3-.6.8-1,1.4-1.3s1.2-.5,2-.5,1.3.1,1.8.4c.5.3.9.6,1.2,1.1.3.4.5.9.6,1.4l-1.2.2c0-.4-.2-.7-.4-1-.2-.3-.5-.6-.8-.7-.3-.2-.8-.3-1.2-.3s-1,.1-1.3.3c-.4.2-.7.5-.9,1-.2.4-.3.9-.3,1.5h0c0,.7.1,1.2.3,1.6.2.4.5.7.9,1,.4.2.8.3,1.3.3.7,0,1.3-.2,1.7-.6.4-.4.6-.9.7-1.4l1.2.3c-.1.5-.3,1-.6,1.4-.3.4-.7.8-1.2,1.1-.5.3-1.1.4-1.8.4Z"/>
            <path class="st18" d="M471,326.2v-10.6h1.2v1.2h.2c.2-.4.5-.7.9-1,.4-.3,1-.4,1.8-.4s1.2.2,1.8.5,1,.8,1.3,1.3c.3.6.5,1.3.5,2.1v.2c0,.8-.2,1.5-.5,2.1-.3.6-.7,1-1.3,1.3-.5.3-1.1.5-1.8.5s-1,0-1.3-.2c-.4-.1-.7-.3-.9-.5-.2-.2-.4-.4-.5-.7h-.2v4.3h-1.2ZM474.9,322.3c.8,0,1.4-.2,1.9-.7.5-.5.7-1.2.7-2.1h0c0-1-.2-1.7-.7-2.2-.5-.5-1.1-.7-1.9-.7s-1.4.2-1.9.7-.7,1.2-.7,2.1h0c0,1,.2,1.7.7,2.2.5.5,1.1.7,1.9.7Z"/>
            <path class="st18" d="M480.9,319.7v-1.1h4.6v1.1h-4.6Z"/>
            <path class="st18" d="M487.9,323.1v-7.5h1.2v1.3h.2c.2-.4.4-.7.8-1,.4-.3,1-.4,1.7-.4s1.1.1,1.5.4c.4.2.8.6,1.1,1,.3.5.4,1,.4,1.7v4.5h-1.2v-4.5c0-.7-.2-1.3-.6-1.6s-.9-.5-1.5-.5-1.3.2-1.8.7c-.5.5-.7,1.2-.7,2.1v3.8h-1.2Z"/>
            <path class="st18" d="M497,319.4v-.2c0-.8.2-1.5.5-2s.7-1,1.3-1.3c.5-.3,1.1-.5,1.8-.5s1.4.2,1.8.5c.4.3.7.6.9,1h.2v-1.2h1.2v9.3c0,.4-.1.7-.3,1-.2.2-.6.4-1,.4h-5.1v-1.1h4.8c.3,0,.5-.2.5-.5v-2.9h-.2c-.1.2-.3.4-.5.7-.2.2-.5.4-.9.5-.4.1-.8.2-1.3.2s-1.2-.2-1.8-.5c-.5-.3-1-.7-1.3-1.3-.3-.6-.5-1.2-.5-2ZM500.9,322.1c.8,0,1.4-.2,1.9-.7.5-.5.7-1.2.7-2h0c0-1-.2-1.7-.7-2.2-.5-.5-1.1-.7-1.9-.7s-1.4.2-1.9.7-.7,1.2-.7,2h0c0,1,.2,1.7.7,2.2.5.5,1.1.7,1.9.7Z"/>
            <path class="st18" d="M514.6,323.3c-.8,0-1.4-.2-2-.5-.6-.3-1-.8-1.3-1.4s-.5-1.3-.5-2v-.2c0-.8.2-1.5.5-2s.8-1,1.3-1.4,1.2-.5,1.9-.5,1.3.2,1.9.5c.5.3,1,.7,1.3,1.3.3.6.5,1.2.5,2v.6h-6.1c0,.8.3,1.4.8,1.9.5.5,1.1.7,1.8.7s1.1-.1,1.5-.4c.3-.3.6-.7.8-1.1l1,.5c-.2.3-.4.6-.6,1-.3.3-.6.6-1.1.8-.4.2-1,.3-1.7.3ZM512,318.7h4.9c0-.7-.3-1.2-.7-1.6-.4-.4-1-.6-1.7-.6s-1.3.2-1.7.6c-.4.4-.7.9-.8,1.6Z"/>
            <path class="st18" d="M520.3,323.1v-7.5h1.2v1.3h.2c.2-.4.4-.7.8-1,.4-.3,1-.4,1.7-.4s1.1.1,1.5.4c.4.2.8.6,1.1,1,.3.5.4,1,.4,1.7v4.5h-1.2v-4.5c0-.7-.2-1.3-.6-1.6s-.9-.5-1.5-.5-1.3.2-1.8.7c-.5.5-.7,1.2-.7,2.1v3.8h-1.2Z"/>
            <path class="st18" d="M531.4,323.1l-2.7-7.5h1.3l2.3,6.6h.2l2.3-6.6h1.3l-2.7,7.5h-1.9Z"/>
            <path class="st18" d="M538.4,314.4c-.3,0-.5,0-.7-.3-.2-.2-.3-.4-.3-.7s0-.5.3-.7c.2-.2.4-.3.7-.3s.5,0,.7.3c.2.2.3.4.3.7s0,.5-.3.7c-.2.2-.4.3-.7.3ZM537.8,323.1v-7.5h1.2v7.5h-1.2Z"/>
            <path class="st18" d="M541.5,323.1v-7.5h1.2v.9h.2c.1-.3.3-.6.6-.7.3-.2.6-.2,1.1-.2h.9v1.1h-1c-.5,0-1,.2-1.3.5s-.5.8-.5,1.4v4.6h-1.2Z"/>
            <path class="st18" d="M550.5,323.3c-.8,0-1.4-.2-2-.5s-1-.8-1.4-1.3c-.3-.6-.5-1.3-.5-2.1v-.2c0-.8.2-1.5.5-2,.3-.6.8-1,1.4-1.4.6-.3,1.2-.5,2-.5s1.4.2,2,.5c.6.3,1,.8,1.4,1.4s.5,1.3.5,2v.2c0,.8-.2,1.5-.5,2.1-.3.6-.8,1-1.4,1.3-.6.3-1.2.5-2,.5ZM550.5,322.2c.8,0,1.4-.3,1.9-.8.5-.5.7-1.2.7-2.1h0c0-1-.2-1.7-.7-2.2s-1.1-.8-1.9-.8-1.4.3-1.9.8c-.5.5-.7,1.2-.7,2.1h0c0,1,.2,1.7.7,2.2.5.5,1.1.8,1.9.8Z"/>
            <path class="st18" d="M556.5,323.1v-7.5h1.2v1.3h.2c.2-.4.4-.7.8-1,.4-.3,1-.4,1.7-.4s1.1.1,1.5.4c.4.2.8.6,1.1,1,.3.5.4,1,.4,1.7v4.5h-1.2v-4.5c0-.7-.2-1.3-.6-1.6s-.9-.5-1.5-.5-1.3.2-1.8.7c-.5.5-.7,1.2-.7,2.1v3.8h-1.2Z"/>
            <path class="st18" d="M566,323.1v-7.5h1.2v.9h.2c.1-.3.4-.5.7-.7.3-.2.8-.3,1.4-.3s1.1.1,1.4.4c.4.3.6.6.8.9h.2c.2-.4.4-.7.8-.9.4-.3.8-.4,1.5-.4s.9.1,1.3.3c.4.2.7.5.9.9.2.4.3.8.3,1.4v5.1h-1.2v-5c0-.5-.1-.9-.4-1.2-.3-.3-.7-.4-1.2-.4s-1,.2-1.4.5c-.4.4-.5.9-.5,1.6v4.5h-1.2v-5c0-.5-.1-.9-.4-1.2s-.7-.4-1.2-.4-1,.2-1.4.5c-.4.4-.5.9-.5,1.6v4.5h-1.2Z"/>
            <path class="st18" d="M582.6,323.3c-.8,0-1.4-.2-2-.5-.6-.3-1-.8-1.3-1.4s-.5-1.3-.5-2v-.2c0-.8.2-1.5.5-2s.8-1,1.3-1.4,1.2-.5,1.9-.5,1.3.2,1.9.5c.5.3,1,.7,1.3,1.3.3.6.5,1.2.5,2v.6h-6.1c0,.8.3,1.4.8,1.9.5.5,1.1.7,1.8.7s1.1-.1,1.5-.4c.3-.3.6-.7.8-1.1l1,.5c-.2.3-.4.6-.6,1-.3.3-.6.6-1.1.8-.4.2-1,.3-1.7.3ZM580,318.7h4.9c0-.7-.3-1.2-.7-1.6-.4-.4-1-.6-1.7-.6s-1.3.2-1.7.6c-.4.4-.7.9-.8,1.6Z"/>
            <path class="st18" d="M588.3,323.1v-7.5h1.2v1.3h.2c.2-.4.4-.7.8-1,.4-.3,1-.4,1.7-.4s1.1.1,1.5.4c.4.2.8.6,1.1,1,.3.5.4,1,.4,1.7v4.5h-1.2v-4.5c0-.7-.2-1.3-.6-1.6s-.9-.5-1.5-.5-1.3.2-1.8.7c-.5.5-.7,1.2-.7,2.1v3.8h-1.2Z"/>
            <path class="st18" d="M600.3,323.1c-.4,0-.8-.1-1-.4s-.3-.6-.3-1v-5.1h-2.3v-1.1h2.3v-2.7h1.2v2.7h2.5v1.1h-2.5v4.9c0,.3.1.5.4.5h1.7v1h-2Z"/>
            <path class="st18" d="M607.6,323.3c-.9,0-1.7-.2-2.4-.6-.6-.4-1-1.1-1.2-2l1.2-.3c0,.5.2.9.5,1.2.2.3.5.5.8.6.3.1.7.2,1.1.2.6,0,1-.1,1.3-.3.3-.2.5-.5.5-.9s-.2-.7-.5-.8c-.3-.2-.7-.3-1.3-.4h-.6c-.5-.2-.9-.3-1.3-.5-.4-.2-.7-.4-1-.7-.2-.3-.4-.7-.4-1.1,0-.7.3-1.2.8-1.6.5-.4,1.2-.6,2.1-.6s1.5.2,2.1.6c.5.4.9.9,1,1.6l-1.1.3c0-.5-.3-.9-.7-1.1-.3-.2-.8-.3-1.3-.3s-.9,0-1.2.3c-.3.2-.4.5-.4.8s.1.6.4.8c.3.2.7.3,1.1.4h.6c.5.2,1,.3,1.4.5.4.2.8.4,1,.7.3.3.4.7.4,1.2,0,.7-.3,1.3-.8,1.7-.5.4-1.3.6-2.2.6Z"/>
          </g>
        </g>
      </g>
    </g>
  </g>
</svg>
